<svg width="20" height="20" viewBox="0 0 20 20" fill="none" xmlns="http://www.w3.org/2000/svg">
<g clip-path="url(#clip0)">
<path d="M19.2336 4.08408C18.4662 3.0281 17.1223 2.07497 15.4494 1.40037C13.7855 0.729428 11.8537 0.358412 10.0096 0.355756C8.16531 0.351146 6.23105 0.718334 4.5648 1.38408C2.88902 2.05365 1.54187 3.00263 0.771674 4.05611C0.0319082 5.06794 -0.181295 6.15853 0.155072 7.20998C0.373275 7.89208 1.0098 8.35103 1.73937 8.35209L4.23745 8.35443C4.23828 8.35443 4.2391 8.35443 4.23995 8.35443C4.73808 8.35439 5.20609 8.13634 5.52413 7.75591C5.83882 7.37955 5.96917 6.88767 5.88179 6.40634C5.87925 6.39224 5.87613 6.37818 5.87257 6.36423L5.74113 5.85322C6.46902 5.50591 8.11824 4.8349 10.0019 4.84556C11.8841 4.85521 13.5322 5.52583 14.261 5.8733L14.1275 6.38142C14.1237 6.3958 14.1205 6.41029 14.1177 6.42486C14.029 6.90591 14.1579 7.39814 14.4715 7.77541C14.789 8.15744 15.2574 8.37689 15.7568 8.37763L18.2549 8.37998C18.2557 8.37998 18.2566 8.37998 18.2574 8.37998C18.9855 8.37994 19.6223 7.9231 19.8421 7.24244C20.1816 6.19122 19.9712 5.09908 19.2336 4.08408ZM18.7062 6.87548C18.6471 7.05861 18.4626 7.18634 18.2569 7.18634C18.2568 7.18634 18.2565 7.18634 18.2562 7.18634L15.7582 7.184C15.6143 7.1838 15.4798 7.12126 15.3894 7.0124C15.3402 6.95322 15.2634 6.83013 15.2885 6.65896L15.5371 5.71353C15.6052 5.45443 15.4923 5.18177 15.261 5.04654C15.1646 4.99021 12.8677 3.66654 10.008 3.65181C9.99206 3.65173 9.97663 3.65169 9.96078 3.65169C7.11949 3.65169 4.83886 4.96958 4.74265 5.02599C4.51285 5.16076 4.40019 5.43146 4.46656 5.68951L4.71015 6.63646C4.73503 6.80798 4.65781 6.93107 4.60839 6.99021C4.51781 7.09857 4.38351 7.16068 4.2396 7.16068C4.23937 7.16068 4.23913 7.16068 4.2389 7.16068L1.74078 7.15833C1.53519 7.15802 1.35062 7.02966 1.29195 6.84615C1.07351 6.1633 1.22265 5.46154 1.73523 4.76044C3.09683 2.8981 6.56558 1.54923 9.98921 1.54923C9.99531 1.54923 10.0018 1.54923 10.0079 1.54923C13.435 1.55415 16.9089 2.91529 18.2682 4.78568C18.7794 5.48947 18.9269 6.19255 18.7062 6.87548Z" fill="black"/>
<path d="M15.6483 10.9296L13.7854 8.97356C13.6727 8.85528 13.5165 8.78837 13.3532 8.78837H12.1493V7.97497C12.1493 7.64536 11.8821 7.37817 11.5525 7.37817C11.2229 7.37817 10.9557 7.64536 10.9557 7.97497V8.78837H9.0447V7.97497C9.0447 7.64536 8.77751 7.37817 8.4479 7.37817C8.11829 7.37817 7.8511 7.64536 7.8511 7.97497V8.78837H6.64724C6.48392 8.78837 6.3277 8.85532 6.21509 8.97356L4.3522 10.9296C2.89157 12.4633 2.08716 14.4743 2.08716 16.5922V19.0474C2.08716 19.377 2.35435 19.6442 2.68396 19.6442H17.3165C17.6461 19.6442 17.9133 19.377 17.9133 19.0474V16.5922C17.9133 14.4743 17.1089 12.4633 15.6483 10.9296ZM3.28075 18.4506V16.5922C3.28075 14.7822 3.96821 13.0635 5.21657 11.7527L6.90306 9.98188H13.0974L14.7839 11.7527C16.0322 13.0634 16.7197 14.7822 16.7197 16.5922V18.4506H3.28075Z" fill="black"/>
<path d="M10.0002 11.2163C8.27797 11.2163 6.87683 12.6175 6.87683 14.3397C6.87683 16.062 8.27801 17.4631 10.0002 17.4631C11.7225 17.4631 13.1236 16.062 13.1236 14.3397C13.1236 12.6174 11.7225 11.2163 10.0002 11.2163ZM10.0002 16.2695C8.93609 16.2695 8.07043 15.4038 8.07043 14.3397C8.07043 13.2756 8.93613 12.4099 10.0002 12.4099C11.0643 12.4099 11.93 13.2756 11.93 14.3397C11.93 15.4038 11.0643 16.2695 10.0002 16.2695Z" fill="black"/>
</g>
<defs>
<clipPath id="clip0">
<rect width="20" height="20" fill="white"/>
</clipPath>
</defs>
</svg>
